<?xml version="1.0" encoding="utf-8"?>
<!-- Generator: Adobe Illustrator 25.4.1, SVG Export Plug-In . SVG Version: 6.00 Build 0)  -->
<svg version="1.1" id="Layer_1" xmlns="http://www.w3.org/2000/svg" xmlns:xlink="http://www.w3.org/1999/xlink" x="0px" y="0px"
	 viewBox="0 0 122.9 35" style="enable-background:new 0 0 122.9 35;" xml:space="preserve">
<style type="text/css">
	.st0{fill:#231F20;}
</style>
<g>
	<g>
		<path class="st0" d="M19.2,5.2h-7.3c-0.4,0-0.8,0.3-0.8,1v19.1c0,0.7,0.4,1,0.8,1h0.8c0.4,0,0.8-0.3,0.8-1l0-8.6c0,0,0.1,0,0.3,0
			h5.3c0.7,0,1-0.4,1-0.9v-0.5c0-0.2-0.1-0.8-1.1-0.8h-5.3c-0.1,0-0.1,0-0.1,0c0,0,0-0.1,0-0.2V7.4c0,0,0,0,0,0c0.1,0,0.1,0,0.3,0
			h5.5c0.7,0,1-0.4,1-0.8V6C20.3,5.8,20.2,5.2,19.2,5.2z"/>
		<path class="st0" d="M30.1,25.3V6.1c0-0.7-0.4-1-0.8-1h-0.8c-0.4,0-0.8,0.3-0.8,1v19.1c0,0.7,0.4,1,0.8,1h0.8
			C29.7,26.3,30.1,26,30.1,25.3z"/>
		<path class="st0" d="M66.4,24.1h-5.9c-0.1,0-0.2,0-0.3,0c0,0,0,0,0,0l0-7.4c0,0,0.1,0,0.3,0h5.3c0.7,0,1-0.4,1-0.9v-0.5
			c0-0.2-0.1-0.8-1.1-0.8h-5.3c-0.1,0-0.1,0-0.1,0c0,0,0-0.1,0-0.2V7.4c0,0,0,0,0,0c0.1,0,0.1,0,0.3,0h5.7c0.7,0,1-0.4,1-0.8V6
			c0-0.2-0.1-0.8-1.1-0.8h-7.5c-0.4,0-0.8,0.3-0.8,1v19.1c0,0.7,0.4,1,0.8,1h7.7c1,0,1.1-0.6,1.1-0.8v-0.6
			C67.4,24.5,67.1,24.1,66.4,24.1z"/>
		<path class="st0" d="M49.5,5.1c-0.6,0-1,0.3-1.1,0.8L44,20.4L39.9,6.1c-0.2-0.6-0.5-0.9-0.8-1c-0.2,0-0.4-0.1-0.6-0.1
			c-0.2,0-0.4,0-0.6,0.1l0,0c-0.1,0-0.4,0.1-0.6,0.5c-0.1,0.2-0.1,0.5,0,0.7L43,26.2c0.1,0.2,0.2,0.8,0.7,0.8c0.4,0,0.6-0.5,0.7-0.7
			c2.3-7.7,4.2-14.3,5.8-19.8c0.1-0.2,0.1-0.5,0-0.8C50,5.1,49.6,5.1,49.5,5.1z"/>
		<path class="st0" d="M88.6,25.7c1.6-3.1,2.7-5.2,3.4-6.5c0.7-1.4,1.1-2.6,1.1-3.7c0-1.9-1-3-3-3h-1.8c0-0.1,0-0.1,0-0.2V7.4
			c0-0.2,0-0.3,0-0.3h4c0.1,0,0.8-0.1,0.8-1c0-0.7-0.4-1-0.8-1h-5.7c-0.5,0-1,0.3-1,1.1v7.1c0,0.8,0.5,1,0.9,1h2.7
			c0.9,0,1.2,0.4,1.2,1.2c0,0.6-0.3,1.6-0.9,2.8L85.9,25c-0.1,0.2-0.2,0.5-0.1,0.7c0.1,0.3,0.4,0.5,0.7,0.5h1.2
			C88,26.3,88.3,26.2,88.6,25.7z"/>
		<path class="st0" d="M108.8,12.5H107c0-0.1,0-0.1,0-0.2V7.4c0-0.2,0-0.3,0-0.3h4c0.1,0,0.8-0.1,0.8-1c0-0.7-0.4-1-0.8-1h-5.7
			c-0.5,0-1,0.3-1,1.1v7.1c0,0.8,0.5,1,0.9,1h2.7c0.9,0,1.2,0.4,1.2,1.2c0,0.6-0.3,1.6-0.9,2.8l-3.6,6.7c-0.1,0.2-0.2,0.5-0.1,0.7
			c0.1,0.3,0.4,0.5,0.7,0.5h1.2c0.2,0,0.6-0.1,0.8-0.6c1.5-2.9,2.7-5.1,3.4-6.5c0.7-1.4,1.1-2.6,1.1-3.7
			C111.8,13.5,110.8,12.5,108.8,12.5z"/>
	</g>
	<g>
		<path class="st0" d="M122.7,34.9H0.2V0.1h122.4V34.9z M0.8,34.4h121.3V0.6H0.8V34.4z"/>
	</g>
</g>
</svg>
