<svg xmlns="http://www.w3.org/2000/svg" viewBox="0 0 59.74 12.66"><defs><style>.cls-1{fill:#1d2f5d;}.cls-2{fill:#f27321;}</style></defs><g id="Layer_2" data-name="Layer 2"><g id="Layer_1-2" data-name="Layer 1"><circle class="cls-1" cx="53.41" cy="6.33" r="6.33"/><path class="cls-2" d="M53.42,1.23a5.05,5.05,0,0,1,5.13,5.12,5.12,5.12,0,0,1-5.2,5.09,5.06,5.06,0,0,1-5.08-5.12A5,5,0,0,1,53.42,1.23Zm0,9.93a4.75,4.75,0,0,0,4.89-4.83,4.88,4.88,0,1,0-9.75,0A4.74,4.74,0,0,0,53.39,11.16Z"/><path class="cls-2" d="M54.47,4.78c-1-.18-1.29-.8-.67-1.84a1.13,1.13,0,0,0-.31-.19.79.79,0,0,0-.34,0l.15,1.79-1,.25,0,0c-.14-.3-.27-.61-.41-.91a.94.94,0,0,1,.8-1.44,7.72,7.72,0,0,1,1.36,0,.94.94,0,0,1,.82,1.28c-.1.3-.2.59-.29.88Z"/><path class="cls-2" d="M54.47,4.78l.16-.16c.12-.1.25-.18.36-.29.79-.77,1.4-.71,1.9.24A4.11,4.11,0,0,1,57.32,6c.08.71-.45,1.07-1.4,1a3.85,3.85,0,0,1-.69-.16c-.15-.93-.34-1,1.58-1.26L56.68,5a7.58,7.58,0,0,1-1.58.57C54.93,5.54,54.68,5,54.47,4.78Z"/><path class="cls-2" d="M51.66,6.93c.64.81.6,1.07-.13,1.65a.9.9,0,0,0-.27.46s.19.14.3.21a2.17,2.17,0,0,0,.24-.45c.17-.65.7-.88,1.61-.67-.27.67,0,1.68-1.08,1.8a2.56,2.56,0,0,1-2-1.5C50.15,7.43,51,7.29,51.66,6.93Z"/><path class="cls-2" d="M52.33,4.8l-.56.87c-.4-.2-.78-.41-1.18-.6A.65.65,0,0,0,50.17,5c-.08,0-.18.27-.15.32a.8.8,0,0,0,.4.27,5.12,5.12,0,0,0,.78.15.52.52,0,0,1,.41.76.81.81,0,0,1-.52.45c-1.28.23-1.79-.4-1.39-1.68,0-.14.09-.3.15-.44.55-1.21,1.11-1.32,2-.4.15.15.3.27.46.41Z"/><path class="cls-2" d="M53.53,8.11c.9-.2,1.16-.06,1.5.74a1.12,1.12,0,0,0,.36.39s.28-.19.27-.21a1,1,0,0,0-.3-.44c-.65-.45-.84-1-.45-1.42a.9.9,0,0,1,.56-.12,1.08,1.08,0,0,1,.34.17A1,1,0,0,1,56.13,9a5.14,5.14,0,0,1-.72.59c-1,.64-1.72.3-1.87-.87A4.54,4.54,0,0,1,53.53,8.11Z"/><path class="cls-2" d="M53.39,4.9a1.42,1.42,0,0,1,1.5,1.43,1.47,1.47,0,0,1-1.46,1.43A1.51,1.51,0,0,1,51.9,6.25,1.53,1.53,0,0,1,53.39,4.9Zm0,.42a1.06,1.06,0,0,0-1.08,1,1.23,1.23,0,0,0,1.09,1.06,1.07,1.07,0,0,0,1.07-1.06A1,1,0,0,0,53.4,5.32Z"/><circle class="cls-1" cx="6.33" cy="6.33" r="6.33"/><path class="cls-2" d="M6.34,1.23a5,5,0,0,1,5.13,5.12,5.11,5.11,0,0,1-5.19,5.09A5.08,5.08,0,0,1,1.19,6.32,5,5,0,0,1,6.34,1.23Zm0,9.93a4.75,4.75,0,0,0,4.89-4.83A4.79,4.79,0,0,0,6.3,1.41,4.75,4.75,0,0,0,1.45,6.33,4.74,4.74,0,0,0,6.32,11.16Z"/><path class="cls-2" d="M7.39,4.78c-1-.18-1.28-.8-.66-1.84a1,1,0,0,0-.32-.19c-.09,0-.2,0-.33,0l.14,1.79-1,.25,0,0c-.13-.3-.27-.61-.41-.91a.94.94,0,0,1,.81-1.44A7.61,7.61,0,0,1,7,2.46a.93.93,0,0,1,.82,1.28c-.09.3-.19.59-.29.88Z"/><path class="cls-2" d="M7.39,4.78l.16-.16c.12-.1.25-.18.37-.29.78-.77,1.39-.71,1.89.24A3.71,3.71,0,0,1,10.24,6c.09.71-.45,1.07-1.39,1a4.18,4.18,0,0,1-.7-.16c-.14-.93-.33-1,1.59-1.26L9.6,5A7.31,7.31,0,0,1,8,5.52C7.85,5.54,7.61,5,7.39,4.78Z"/><path class="cls-2" d="M4.59,6.93c.63.81.6,1.07-.14,1.65A1.06,1.06,0,0,0,4.18,9s.2.14.3.21a2.17,2.17,0,0,0,.24-.45c.17-.65.7-.88,1.62-.67-.27.67,0,1.68-1.08,1.8a2.53,2.53,0,0,1-2-1.5C3.07,7.43,3.93,7.29,4.59,6.93Z"/><path class="cls-2" d="M5.25,4.8l-.55.87-1.18-.6A.66.66,0,0,0,3.1,5C3,5,2.91,5.25,3,5.3a.81.81,0,0,0,.39.27,5.24,5.24,0,0,0,.79.15c.45.08.51.43.41.76A.82.82,0,0,1,4,6.93c-1.27.23-1.79-.4-1.38-1.68a3.81,3.81,0,0,1,.15-.44c.55-1.21,1.1-1.32,2-.4.14.15.3.27.45.41Z"/><path class="cls-2" d="M6.46,8.11c.9-.2,1.15-.06,1.5.74a1,1,0,0,0,.35.39s.29-.19.28-.21a1.17,1.17,0,0,0-.31-.44c-.64-.45-.84-1-.44-1.42.1-.11.36-.12.55-.12a1.13,1.13,0,0,1,.35.17A1,1,0,0,1,9.06,9a5.79,5.79,0,0,1-.72.59c-1,.64-1.72.3-1.88-.87C6.44,8.57,6.46,8.36,6.46,8.11Z"/><path class="cls-2" d="M6.32,4.9a1.42,1.42,0,0,1,1.5,1.43A1.47,1.47,0,0,1,6.36,7.76,1.5,1.5,0,0,1,4.83,6.25,1.53,1.53,0,0,1,6.32,4.9Zm0,.42a1.06,1.06,0,0,0-1.08,1A1.21,1.21,0,0,0,6.34,7.35,1.06,1.06,0,0,0,7.4,6.29,1,1,0,0,0,6.33,5.32Z"/><circle class="cls-1" cx="29.87" cy="6.33" r="6.33"/><path class="cls-2" d="M29.88,1.23A5,5,0,0,1,35,6.35a5.14,5.14,0,0,1-10.28,0A5,5,0,0,1,29.88,1.23Zm0,9.93a4.75,4.75,0,0,0,4.89-4.83,4.79,4.79,0,0,0-4.91-4.92A4.74,4.74,0,0,0,25,6.33,4.74,4.74,0,0,0,29.86,11.16Z"/><path class="cls-2" d="M30.93,4.78c-1.05-.18-1.28-.8-.66-1.84A1.18,1.18,0,0,0,30,2.75a.75.75,0,0,0-.33,0l.14,1.79-1,.25,0,0c-.14-.3-.27-.61-.41-.91a.94.94,0,0,1,.81-1.44,7.6,7.6,0,0,1,1.35,0,.93.93,0,0,1,.82,1.28c-.09.3-.19.59-.29.88Z"/><path class="cls-2" d="M30.93,4.78l.16-.16c.12-.1.25-.18.36-.29.79-.77,1.4-.71,1.9.24A3.9,3.9,0,0,1,33.78,6c.08.71-.45,1.07-1.39,1a4.18,4.18,0,0,1-.7-.16c-.14-.93-.34-1,1.59-1.26L33.14,5a7.51,7.51,0,0,1-1.57.57C31.39,5.54,31.14,5,30.93,4.78Z"/><path class="cls-2" d="M28.13,6.93c.63.81.59,1.07-.14,1.65a1.06,1.06,0,0,0-.27.46s.19.14.3.21a2.17,2.17,0,0,0,.24-.45c.17-.65.7-.88,1.61-.67-.26.67.05,1.68-1.08,1.8a2.53,2.53,0,0,1-2-1.5C26.61,7.43,27.47,7.29,28.13,6.93Z"/><path class="cls-2" d="M28.79,4.8l-.56.87c-.39-.2-.78-.41-1.18-.6A.63.63,0,0,0,26.63,5c-.07,0-.18.27-.14.32a.77.77,0,0,0,.39.27,5.12,5.12,0,0,0,.78.15c.46.08.52.43.41.76a.81.81,0,0,1-.52.45c-1.27.23-1.79-.4-1.38-1.68a3.73,3.73,0,0,1,.14-.44c.55-1.21,1.11-1.32,2-.4.15.15.31.27.46.41Z"/><path class="cls-2" d="M30,8.11c.9-.2,1.15-.06,1.49.74a1.12,1.12,0,0,0,.36.39s.29-.19.28-.21a1.17,1.17,0,0,0-.31-.44c-.64-.45-.84-1-.44-1.42.1-.11.36-.12.55-.12a1.13,1.13,0,0,1,.35.17A1,1,0,0,1,32.59,9a5.14,5.14,0,0,1-.72.59c-1,.64-1.72.3-1.87-.87A4.68,4.68,0,0,1,30,8.11Z"/><path class="cls-2" d="M29.85,4.9a1.43,1.43,0,0,1,1.51,1.43,1.47,1.47,0,0,1-1.47,1.43,1.51,1.51,0,0,1-1.53-1.51A1.53,1.53,0,0,1,29.85,4.9Zm0,.42a1,1,0,0,0-1.07,1,1.21,1.21,0,0,0,1.09,1.06,1.06,1.06,0,0,0,1.06-1.06A1,1,0,0,0,29.86,5.32Z"/></g></g></svg>