<svg xmlns="http://www.w3.org/2000/svg" viewBox="0 0 30 30"><defs><style>.cls-1{fill:#fff;}</style></defs><g id="Layer_2" data-name="Layer 2"><g id="Layer_1-2" data-name="Layer 1"><path class="cls-1" d="M23.84,0H6.16A6.16,6.16,0,0,0,0,6.16V23.84A6.16,6.16,0,0,0,6.16,30H16c0-3.87,0-7.74,0-11.61H12.09c0-.21,0-.43,0-.65,0-1.29,0-2.58,0-3.86,1.31,0,2.62,0,3.93,0V11a10.66,10.66,0,0,1,0-1.13,5.75,5.75,0,0,1,1.44-3.64,4.89,4.89,0,0,1,2.29-1.41,7.14,7.14,0,0,1,2.43-.28,27.69,27.69,0,0,1,3.15.16q0,2,0,4.05c-.51,0-1,0-1.54,0a6.11,6.11,0,0,0-2,.18,1.44,1.44,0,0,0-.83.74,4.12,4.12,0,0,0-.21,1.71v2.45h4.47c-.19,1.51-.39,3-.59,4.52-1.29,0-2.59,0-3.88,0,0,3.87,0,7.74,0,11.61h3.12A6.16,6.16,0,0,0,30,23.84V6.16A6.16,6.16,0,0,0,23.84,0Z"/></g></g></svg>