<svg xmlns="http://www.w3.org/2000/svg" viewBox="0 0 30.9 30"><defs><style>.cls-1{fill:#fff;}</style></defs><g id="Layer_2" data-name="Layer 2"><g id="Layer_1-2" data-name="Layer 1"><polygon class="cls-1" points="29.12 27.68 29.12 27.68 29.11 27.68 29.12 27.68"/><path class="cls-1" d="M30.9,8a5.88,5.88,0,0,0-.1-1.51,9.53,9.53,0,0,0-.49-2.3l-.06,0A5.67,5.67,0,0,0,28,1.3a5.61,5.61,0,0,0-2.53-1A13.56,13.56,0,0,0,22.31,0a11.31,11.31,0,0,0-1.54,0c-1.47,0-3-.06-4.43,0C14,0,11.55,0,9.15,0A15,15,0,0,0,4.67.43a6.21,6.21,0,0,0-3,2A3.53,3.53,0,0,0,.87,3.69V3.61a7.68,7.68,0,0,0-.67,2.2,7.91,7.91,0,0,0-.07,1C0,8.08,0,9.38,0,10.68,0,13.11,0,15.55.06,18c0,1.81,0,3.62,0,5.42A9.18,9.18,0,0,0,.62,26a6,6,0,0,0,.91,1.47,6.36,6.36,0,0,0,1,1,2.59,2.59,0,0,0,.95.58,2.93,2.93,0,0,0,1.14.54,16.85,16.85,0,0,0,5,.39c1.25,0,2.49,0,3.74,0,2.71,0,5.43,0,8.15,0h.79l1.31,0a13.75,13.75,0,0,0,2.21-.27,8.82,8.82,0,0,0,1.48-.56,6.3,6.3,0,0,0,1.89-1.47h0a6.57,6.57,0,0,0,1.53-3.3,27,27,0,0,0,.16-4.12,10.68,10.68,0,0,0,.06-1.79C30.9,15,30.88,11.48,30.9,8ZM4.17,9.2a6.47,6.47,0,0,1,.9-2.45c.21-.26.41-.53.63-.79l.56-.53A7.12,7.12,0,0,1,10.42,4l.52,0c1.58-.05,3.16-.06,4.74-.06,1.37,0,2.73,0,4.09.07A8.69,8.69,0,0,1,23,4.5a5.91,5.91,0,0,1,2,1.3,7,7,0,0,1,.61.72A6.9,6.9,0,0,1,26.37,8a10.3,10.3,0,0,1,.41,2c.15,3.34.17,6.68,0,10a6.26,6.26,0,0,1-2.93,5.19,7.69,7.69,0,0,1-2.8.91c-1.65.15-3.31.12-5,.15s-3.14,0-4.7,0a13.83,13.83,0,0,1-2.94-.36A6.24,6.24,0,0,1,6,24.43a5.61,5.61,0,0,1-1.35-1.94,8.66,8.66,0,0,1-.55-2.2c0-.37,0-.74,0-1.12,0-2.79-.07-5.59.06-8.39C4.17,10.26,4.07,9.72,4.17,9.2Z"/><path class="cls-1" d="M24.78,12.6a12.33,12.33,0,0,0,0-1.92,5,5,0,0,0-.31-1.88c0-.06,0-.18,0-.23l-.12,0,.05-.19-.06,0A.75.75,0,0,0,24.07,8l.05-.12L24,7.74h-.12a1.27,1.27,0,0,0-.56-.67A4.16,4.16,0,0,0,20.71,6a44.12,44.12,0,0,0-5-.08,31.4,31.4,0,0,0-3.63,0,8.1,8.1,0,0,0-3.84.6,3.8,3.8,0,0,0-2,3,1.43,1.43,0,0,0-.08.61,35.74,35.74,0,0,0-.08,4c-.08.85,0,1.72,0,2.58s0,1.57.05,2.35A5.11,5.11,0,0,0,7.37,23a4.51,4.51,0,0,0,2.85,1.13c1.62.11,3.26.14,4.89.09a26.62,26.62,0,0,0,2.68,0c.71,0,1.42,0,2.13,0a4.68,4.68,0,0,0,3.85-1.56,3.85,3.85,0,0,0,.9-2.06,58.63,58.63,0,0,0,.16-5.93C24.81,13.92,24.86,13.26,24.78,12.6Zm-4.7,6a6.21,6.21,0,0,1-2.56,1.82,6.33,6.33,0,0,1-3.08.32,6.25,6.25,0,0,1-3.56-2.06,5.85,5.85,0,0,1-1.26-2.77,5.76,5.76,0,0,1,.28-2.76,5.86,5.86,0,0,1,2.39-2.94,6,6,0,0,1,4.65-.7A5.9,5.9,0,0,1,21,13.15,5.71,5.71,0,0,1,20.08,18.58Zm2.76-9.11a1.38,1.38,0,0,1-1.73.89,1.66,1.66,0,0,1-.93-.87A1.46,1.46,0,0,1,20.71,8a1.49,1.49,0,0,1,1.83.14A1.39,1.39,0,0,1,22.84,9.47Z"/><path class="cls-1" d="M17.48,11.87a3.94,3.94,0,0,0-3.78-.15,3.88,3.88,0,0,0-1.77,1.83,4.29,4.29,0,0,0-.3,1.77A3.86,3.86,0,0,0,17.78,18a3.2,3.2,0,0,0,.78-.82,3.63,3.63,0,0,0,.59-3.08A3.84,3.84,0,0,0,17.48,11.87Z"/></g></g></svg>